<svg xmlns="http://www.w3.org/2000/svg" width="1280" height="410" viewBox="0 0 1280 410" role="img"><defs><linearGradient id="bg" x2="1" y2="1"><stop stop-color="#172235"/><stop offset="1" stop-color="#0a101c"/></linearGradient><pattern id="grid" width="32" height="32" patternUnits="userSpaceOnUse"><path d="M32 0H0V32" stroke="#94a3b8" stroke-opacity=".055" fill="none"/></pattern></defs><rect width="1280" height="410" rx="22" fill="url(#bg)"/><rect width="1280" height="410" rx="22" fill="url(#grid)"/><text x="48" y="49" font-family="DejaVu Sans,Arial,sans-serif" font-size="14" font-weight="600" fill="#fb923c" letter-spacing="2">NIKHIL / AI &amp; DATA SCIENCE</text><text x="43" y="150" font-family="DejaVu Sans,Arial,sans-serif" font-size="69" font-weight="700" fill="#f8fafc" >From data</text><text x="43" y="228" font-family="DejaVu Sans,Arial,sans-serif" font-size="56" font-weight="700" fill="#f8fafc" >to deployed products.</text><text x="48" y="283" font-family="DejaVu Sans,Arial,sans-serif" font-size="18" font-weight="400" fill="#a5b5cb" >Machine learning. Agent systems. Full-stack engineering.</text><path d="M48 325L729 325" fill="none" stroke="#34425b" stroke-width="2" /><text x="48" y="366" font-family="DejaVu Sans,Arial,sans-serif" font-size="13" font-weight="500" fill="#a5b5cb" letter-spacing="2">BENGALURU, INDIA</text><text x="461" y="366" font-family="DejaVu Sans,Arial,sans-serif" font-size="13" font-weight="500" fill="#fb923c" letter-spacing="2">BUILD / EVALUATE / SHIP</text><circle cx="1000" cy="199" r="145" fill="none" stroke="#26374e"/><circle cx="1000" cy="199" r="103" fill="none" stroke="#33465e" stroke-dasharray="3 9"/><path d="M1000 199L1145.0 199.0" fill="none" stroke="#25364b" stroke-width="2" /><path d="M1000 199L1072.5 324.5736835487436" fill="none" stroke="#25364b" stroke-width="2" /><path d="M1000 199L927.5 324.5736835487436" fill="none" stroke="#25364b" stroke-width="2" /><path d="M1000 199L855.0 199.00000000000003" fill="none" stroke="#25364b" stroke-width="2" /><path d="M1000 199L927.4999999999999 73.42631645125644" fill="none" stroke="#25364b" stroke-width="2" /><path d="M1000 199L1072.5 73.4263164512564" fill="none" stroke="#25364b" stroke-width="2" /><rect x="932" y="132" width="136" height="136" rx="26" fill="#19283b" stroke="#fb923c"/><text x="954" y="211" font-family="DejaVu Sans,Arial,sans-serif" font-size="64" font-weight="700" fill="#fb923c" >N.</text><circle cx="1145.0" cy="199.0" r="16" fill="#fb923c" opacity=".12"/><circle cx="1145.0" cy="199.0" r="5" fill="#fb923c"/><circle cx="916.6712495793804" cy="259.54188098612474" r="16" fill="#7dd3fc" opacity=".12"/><circle cx="916.6712495793804" cy="259.54188098612474" r="5" fill="#7dd3fc"/></svg>